<svg height="511pt" viewBox="0 -3 511.99951 511" width="511pt" xmlns="http://www.w3.org/2000/svg"><path d="m510.871094 109.328125c-2.191406-3.542969-6.839844-4.640625-10.382813-2.449219l-6.574219 4.066406c-35.082031 21.695313-73.5625 15.058594-111.59375-1.476562 7.039063-23.398438 24.117188-24.414062 25.039063-24.453125 4.128906-.089844 7.421875-3.488281 7.375-7.628906-.050781-4.164063-3.488281-7.5-7.632813-7.449219-10.125.117188-29.847656 7.414062-38.519531 33-2.015625-1.042969-3.675781-1.949219-4.914062-2.640625-87.324219-48.902344-175.53125-69.953125-260.007813-18.066406 6.84375-37.160157-18.367187-74.050781-57.21875-79.988281-4.121094-.628907-7.964844 2.199218-8.59375 6.3125-.628906 4.121093 2.199219 7.964843 6.3125 8.597656 29.21875 4.464844 49.355469 31.867187 44.890625 61.085937-3.433593 22.476563-24.5625 38.101563-47.152343 34.648438-17.21875-2.628907-29.085938-18.78125-26.453126-36 1.980469-12.953125 14.132813-21.882813 27.082032-19.902344 13.527344 2.066406 18.863281 18.109375 11.703125 26.273437-3.824219-7.210937-12.964844-9.050781-19.261719-4.421874-5.8125 4.269531-7.0625 12.441406-2.792969 18.253906 8.699219 11.835937 36.480469 4.625 39.921875-17.878906 2.710938-17.765626-9.527344-34.421876-27.292968-37.136719-21.171876-3.234375-41.035157 11.355469-44.269532 32.535156-4.015625 26.265625 14.960938 52.707031 45.640625 53.804687-7.820312 7.382813-18.003906 19.242188-26.222656 36.484376-23.09375 48.449218-15.320313 105.703124 2.851563 156.4375 21.066406 58.8125 21.765624 135.714843-9.734376 172.015624-2.730468 3.144532-2.394531 7.90625.75 10.636719 3.144532 2.730469 7.910157 2.394531 10.640626-.75 19.824218-22.84375 26.414062-55.523437 27.996093-82.847656 18.792969 5.0625 19.917969 17.800781 19.980469 19.304687v-.109374l15.082031-.183594c-.113281-9.425782-7.515625-28.683594-34.644531-34.417969-.214844-72.425781-24.253906-90.683594-30.84375-151.195313 14 13.269532 31.488281 16.816407 43.21875 13.917969 4.042969-.996093 6.546875-5.09375 5.550781-9.136719-1-4.042968-5.050781-6.519531-9.09375-5.523437-1.015625.230469-24.582031 5.128906-40.796875-25.882813.871094-29.546874 9.363282-57.863281 28.410156-80.148437-2.554687 36.589844 29.507813 64.007813 64.925782 64.007813 18.347656 0 35.59375-7.144532 48.570312-20.117188 2.945313-2.945312 2.945313-7.71875 0-10.664062-2.945312-2.945313-7.722656-2.945313-10.667968 0-20.898438 20.902343-54.90625 20.898437-75.808594 0-16.128906-16.132813-16.128906-42.382813 0-58.515626 12.320312-12.316406 32.363281-12.316406 44.679687 0 9.265625 9.269532 9.265625 24.34375 0 33.609376-9.734375 9.738281-25.796875 4.402343-28.109375-6.128907 8.066406 1.195313 14.980469-5.074219 14.980469-12.902343 0-11.71875-14.253906-17.339844-22.289063-9.304688-18.28125 18.28125-3.851562 48.546875 23.042969 48.546875 30.644531 0 46.722657-40.800781 23.042969-64.484375-6.847656-6.84375-15.445312-11.289062-24.78125-12.941406 31.765625-20.617188 54.246094-26.007813 83.542969-30.246094 38.929687 22.832031 30.867187 52.957031 30.457031 54.382812-1.1875 3.972657 1.050781 8.160157 5.019531 9.375 3.980469 1.21875 8.199219-1.023437 9.417969-5.003906.355469-1.164062 3.378906-11.78125-.027344-26.082031-2.230468-9.375-7.664062-21.667969-20.445312-33.410156 47.617187 2.433593 99.234375 22.691406 141.429687 46.320312 25.53125 14.296875 60.429688 26.378907 89.761719 26.378907 36.101562 0 58.527344-18.324219 62.359375-20.128907 3.542969-2.1875 4.640625-6.835937 2.449219-10.378906zm0 0" fill="#b9e746"/><path d="m286.601562 200.25c-.058593 7.925781-.703124 14.3125-1.1875 17.960938-.21875 1.667968-2.03125 2.59375-3.519531 1.808593-85.210937-44.96875-54.039062-109.988281-54.039062-109.988281 5.492187 1.378906 10.488281 3.160156 15.023437 5.28125 37.960938 17.769531 43.925782 59.378906 43.722656 84.9375zm0 0" fill="#8078bf"/><path d="m286.601562 200.25c-44.4375-29.542969-46.949218-64.808594-43.722656-84.9375 37.960938 17.769531 43.925782 59.378906 43.722656 84.9375zm0 0" fill="#958fca"/><path d="m220.414062 212.367188c-6.050781 7.441406-11.652343 12.902343-14.761718 15.757812-1.246094 1.136719-3.226563.675781-3.859375-.875-23.21875-57.105469-6.65625-98.101562 25.941406-117.175781 1.007813-.445313 2.222656-.9375 3.621094-1.449219 1.992187 2.773438 3.75 5.5625 5.289062 8.324219 5.28125 9.484375 7.976563 18.867187 8.789063 27.925781 2.445312 27.363281-12.277344 51.816406-25.019532 67.492188zm0 0" fill="#aba6d5"/><path d="m220.414062 212.367188c-13.957031-42.695313-4.835937-75.40625 16.230469-95.417969 5.28125 9.484375 7.976563 18.867187 8.789063 27.925781 2.445312 27.363281-12.277344 51.816406-25.019532 67.492188zm0 0" fill="#c1bde0"/><path d="m336.144531 161.707031c-12.871093 2.597657-60.222656 9.824219-90.710937-16.832031-8.847656-7.730469-16.28125-18.320312-21.015625-32.710938 2.976562-2.019531 3.679687-2.34375 6.9375-3.539062 3.722656-1.347656 8.75-2.835938 14.753906-3.742188 21.96875-3.296874 56.972656 1.148438 88.15625 47.835938 1.15625 1.730469 2.300781 3.507812 3.449219 5.359375.882812 1.429687.082031 3.296875-1.570313 3.628906zm0 0" fill="#aba6d5"/><path d="m334.265625 152.71875c-20.132813.996094-48.238281-1.617188-68.71875-19.527344-7.925781-6.917968-14.703125-16.128906-19.4375-28.304687 21.96875-3.300781 56.972656 1.144531 88.15625 47.832031zm0 0" fill="#c1bde0"/><path d="m457.09375 24.289062c-.863281 4.726563-1.929688 9.070313-3.167969 13.042969-10.132812 32.570313-31.53125 40.9375-44.707031 42.898438-6.605469.984375-11.140625.351562-11.140625.351562-2.84375-44.566406 44.636719-56.324219 56.734375-58.59375 1.355469-.253906 2.535156.933594 2.28125 2.300781zm0 0" fill="#8078bf"/><path d="m453.925781 37.332031c-10.132812 32.570313-31.53125 40.9375-44.707031 42.898438 4.597656-26.15625 28.8125-37.933594 44.707031-42.898438zm0 0" fill="#958fca"/><path d="m409.550781 73.703125c-2.574219 3.035156-5.691406 5.929687-9.410156 8.636719-1.992187-1.589844-2.121094-1.699219-3.671875-3.710938-7.730469-9.996094-23.410156-38.5625 9.535156-77.429687.894532-1.054688 2.5625-.894531 3.226563.324219 1.398437 2.554687 3.628906 6.957031 5.761719 12.546874 5.933593 15.578126 11 40.335938-5.441407 59.632813zm0 0" fill="#aba6d5"/><path d="m409.550781 73.703125c-6.453125-11.738281-12.074219-32.703125 5.441407-59.632813 5.933593 15.578126 11 40.335938-5.441407 59.632813zm0 0" fill="#c1bde0"/><path d="m133.203125 311.066406c-18.402344.773438-71.738281-1.417968-81.378906-51.535156 0 0 4.847656-2.003906 12.5-2.898438 16.640625-1.960937 46.574219 1.296876 69.03125 41.640626 1.195312 2.121093 2.351562 4.34375 3.488281 6.675781 1.335938 2.746093-.574219 5.984375-3.640625 6.117187zm0 0" fill="#8078bf"/><path d="m133.355469 298.273438c-21.058594-.761719-56.875-7.308594-69.03125-41.640626 16.640625-1.960937 46.574219 1.296876 69.03125 41.640626zm0 0" fill="#958fca"/><path d="m92.558594 322.066406c-.210938 9.855469-1.730469 18.441406-2.945313 23.871094-.675781 2.996094-4.203125 4.3125-6.6875 2.484375-38.222656-28.105469-44.515625-62.085937-31.0625-88.992187 0-.039063.261719-.421876.59375-.886719.503907-.710938 1.15625-1.597657 1.238281-1.707031 11.421876 4.472656 19.648438 10.949218 25.519532 18.441406 11.050781 14.136718 13.675781 31.90625 13.34375 46.789062zm0 0" fill="#aba6d5"/><path d="m92.558594 322.066406c-.886719.007813-1.800782-.253906-2.59375-.84375-26.527344-19.511718-37.679688-41.84375-37.507813-62.679687.503907-.710938 1.15625-1.597657 1.238281-1.707031 11.421876 4.472656 19.648438 10.949218 25.519532 18.441406 11.050781 14.136718 13.675781 31.90625 13.34375 46.789062zm0 0" fill="#c1bde0"/><path d="m118.972656 479.054688c-46.566406-10.570313-41.507812-46.949219-41.507812-46.949219 4.757812-.304688 9.039062.097656 12.910156 1.054687 18.28125 4.472656 27.261719 21.148438 31.476562 33.394532.933594 2.726562 1.636719 5.230468 2.152344 7.332031.753906 3.046875-1.960937 5.859375-5.03125 5.167969zm0 0" fill="#8078bf"/><path d="m121.851562 466.554688c-22.574218-8.042969-29.484374-23.109376-31.476562-33.394532 18.28125 4.472656 27.261719 21.148438 31.476562 33.394532zm0 0" fill="#958fca"/><path d="m91.632812 483.027344c-1.285156 3.738281-2.722656 7-3.972656 9.53125-1.417968 2.867187-5.328125 3.21875-7.25.664062-18.21875-24.152344-16.046875-46.316406-3.046875-61.027344.234375-.230468 1.226563-1.035156 1.679688-1.378906 1.851562 1.371094 3.5 2.796875 4.976562 4.265625 3.8125 3.789063 6.476563 7.882813 8.246094 12.105469 5.21875 12.378906 2.816406 25.832031-.632813 35.839844zm0 0" fill="#aba6d5"/><path d="m91.632812 483.027344c-12.457031-18-13.644531-34.753906-7.613281-47.945313 3.8125 3.789063 6.476563 7.882813 8.246094 12.105469 5.21875 12.378906 2.816406 25.832031-.632813 35.839844zm0 0" fill="#c1bde0"/><path d="m137.679688 443.09375c-9.351563 4.464844-28.488282 11.445312-45.414063 4.09375-5.832031-2.523438-11.410156-6.765625-16.230469-13.414062.304688-.371094 1.148438-1.398438 1.378906-1.628907 2.464844-2.121093 5.117188-3.953125 7.945313-5.429687 13.101563-6.878906 29.875-6.425782 47.863281 5.417968 1.730469 1.128907 3.460938 2.375 5.210938 3.722657 2.523437 1.960937 2.128906 5.863281-.753906 7.238281zm0 0" fill="#aba6d5"/><path d="m133.222656 432.132812c-10.195312 3.722657-24.746094 6.707032-37.9375.964844-3.429687-1.484375-6.777344-3.558594-9.925781-6.382812 13.101563-6.878906 29.875-6.425782 47.863281 5.417968zm0 0" fill="#c1bde0"/><path d="m477.679688 73.691406c-2.917969 2.414063-5.773438 4.554688-8.558594 6.457032-28.246094 19.253906-50.054688 13.472656-62.164063 6.726562-2.804687-1.550781-5.085937-3.167969-6.816406-4.535156-1.992187-1.589844-2.121094-1.699219-3.671875-3.710938 6.042969-8.125 12.984375-13.285156 20.234375-16.339844 24.515625-10.308593 52.46875 3.527344 60.703125 8.175782 1.207031.671875 1.339844 2.34375.273438 3.226562zm0 0" fill="#aba6d5"/><path d="m469.121094 80.148438c-28.246094 19.253906-50.054688 13.472656-62.164063 6.726562 4.34375-4.101562 8.988281-7.039062 13.765625-9.050781 17.074219-7.179688 35.808594-2.644531 48.398438 2.324219zm0 0" fill="#c1bde0"/><path d="m145.710938 249.242188c-10.304688 9.402343-36.972657 30.320312-66.496094 26.035156-9.414063-1.355469-19.117188-5.289063-28.679688-12.972656.472656-1.113282.925782-2.070313 1.328125-2.875 0-.007813.011719-.019532.019531-.039063 2.785157-4.234375 6.042969-8.085937 9.765626-11.453125 16.058593-14.621094 40.582031-20.472656 71.375-10.207031 3.75 1.246093 7.589843 2.734375 11.523437 4.472656 2.816406 1.25 3.4375 4.96875 1.164063 7.039063zm0 0" fill="#aba6d5"/><path d="m133.023438 237.730469c-13.253907 9.238281-32.800782 18.941406-53.808594 15.894531-5.78125-.832031-11.675782-2.632812-17.566406-5.691406 16.058593-14.617188 40.582031-20.472656 71.375-10.203125zm0 0" fill="#c1bde0"/></svg>